<svg xmlns="http://www.w3.org/2000/svg" xmlns:xlink="http://www.w3.org/1999/xlink" version="1.1" x="0px" y="0px" viewBox="0 0 100 125" enable-background="new 0 0 100 100" xml:space="preserve"><path d="M71.939,48.978L58.268,37.167c-0.627-0.542-1.575-0.471-2.115,0.155c-0.542,0.627-0.473,1.574,0.154,2.116l10.479,9.052  H29.444c-0.828,0-1.5,0.671-1.5,1.5s0.672,1.5,1.5,1.5h37.719l-5.973,5.331l-4.666,3.69c-0.649,0.514-0.76,1.457-0.246,2.107  c0.296,0.374,0.735,0.569,1.178,0.569c0.326,0,0.654-0.105,0.93-0.324l4.733-3.748l8.838-7.884c0.322-0.287,0.505-0.699,0.502-1.131  C72.455,49.669,72.267,49.26,71.939,48.978z"/></svg>
